<svg width="61" height="52" viewBox="0 0 61 52" fill="none" xmlns="http://www.w3.org/2000/svg">
<path d="M18.8312 20.9318L9.42184 16.0693L0 20.9318V30.6348L9.42184 35.4863L18.8312 30.6348V20.9318ZM16.8051 29.5912L9.42184 33.3881L2.03851 29.5912V21.9754L9.42184 18.1675L16.8051 21.9754V29.5912Z" fill="white"/>
<path d="M39.1689 20.9208L30.124 16.0693L21.0909 20.9208V30.6237L30.124 35.4863L39.1689 30.6237V20.9208Z" fill="white"/>
<path d="M50.838 16.0693L41.4286 20.9318V30.6348L50.838 35.4863L60.2598 30.6348V20.9318L50.838 16.0693ZM58.2215 29.5912L50.838 33.3881L43.4547 29.5912V21.9754L50.838 18.1675L58.2215 21.9754V29.5912Z" fill="white"/>
<path d="M10.5454 37.0011V46.7042L19.9796 51.5556L29.3766 46.7042V37.0011L19.9796 32.1385L10.5454 37.0011ZM27.3159 45.6939L19.9796 49.4574L12.5316 45.6939V38.0447L19.9796 34.2368L27.3408 38.0447L27.3159 45.6939Z" fill="white"/>
<path d="M30.8831 37.0011V46.7042L40.2924 51.5556L49.7142 46.7042V37.0011L40.2924 32.1385L30.8831 37.0011ZM47.6757 45.6939L40.2924 49.4907L32.9216 45.6939V38.0447L40.2924 34.2368L47.6757 38.0447V45.6939Z" fill="white"/>
<path d="M29.3766 14.5655V4.82928L19.9921 0L10.5454 4.82928V14.5322L19.9921 19.417L29.3766 14.5655ZM12.5342 5.93946L19.9921 2.09824L27.3381 5.93946V13.5553L19.9921 17.3188L12.5342 13.5219V5.93946Z" fill="white"/>
<path d="M49.7142 14.5988V4.86256L40.2924 0L30.8831 4.86256V14.5655L40.2924 19.417L49.7142 14.5988ZM32.9216 5.97274L40.2924 2.16486L47.6757 5.97274V13.5886L40.2924 17.3854L32.9216 13.5886V5.97274Z" fill="white"/>
</svg>
